<svg width="17" height="19" viewBox="0 0 17 19" fill="none" xmlns="http://www.w3.org/2000/svg">
<path d="M15.7266 11.0764L9.16406 17.9514C8.96875 18.1467 8.73438 18.2249 8.5 18.2249C8.22656 18.2249 7.99219 18.1467 7.79688 17.9514L1.23438 11.0764C0.882812 10.6858 0.882812 10.0999 1.27344 9.74829C1.625 9.39673 2.25 9.39673 2.60156 9.78735L7.5625 14.9827V1.70142C7.5625 1.15454 7.95312 0.763916 8.46094 0.763916C8.92969 0.763916 9.4375 1.15454 9.4375 1.70142V14.9827L14.3594 9.78735C14.7109 9.39673 15.3359 9.39673 15.6875 9.74829C16.0781 10.0999 16.0781 10.6858 15.7266 11.0764Z" fill="#036042"/>
</svg>
