<svg width="37" height="21" viewBox="0 0 37 21" fill="none" xmlns="http://www.w3.org/2000/svg">
<path d="M36.9507 13.6032C35.8462 14.7775 34.7697 15.6024 34.0427 15.6024C33.5254 15.6024 33.2318 15.2249 33.2318 14.6098C33.2318 12.5826 36.9646 7.70333 36.9227 4.30604C36.8808 2.08311 35.273 0.475342 33.0501 0.475342C30.8271 0.475342 28.2687 1.94331 26.577 4.82332L27.9052 0.950683H23.1238C20.9428 7.18605 18.8737 13.4354 16.7347 19.6707H21.6559C23.0679 14.47 26.8147 4.82332 30.5895 4.82332C31.4423 4.82332 31.7219 5.3406 31.7219 6.09556C31.7219 8.31848 28.2268 12.3309 28.2268 15.9799C28.2268 18.3845 29.6947 20.1461 32.5328 20.1461C34.0846 20.1461 35.5945 19.5449 36.9507 18.6502V13.6032Z" fill="#9CD4C2"/>
<path d="M15.3368 0.936645C13.9247 6.13744 10.1779 15.7841 6.40313 15.7841C5.55031 15.7841 5.2707 15.2668 5.2707 14.5118C5.2707 12.2889 8.76586 8.27648 8.76586 4.62753C8.76586 2.22286 7.29789 0.461304 4.4738 0.461304C2.90797 0.461304 1.3701 1.09043 0 1.99917V7.06016C1.11845 5.85783 2.22292 5.00501 2.94991 5.00501C3.4672 5.00501 3.76079 5.38249 3.76079 5.99763C3.76079 8.03881 0.0279613 12.9041 0.0699032 16.3014C0.111845 18.5243 1.71962 20.1321 3.94254 20.1321C6.16546 20.1321 8.72391 18.6641 10.4156 15.7841L9.08741 19.6567H13.8688C16.0498 13.4214 18.1189 7.17201 20.2579 0.936645H15.3368Z" fill="#9CD4C2"/>
</svg>
