<svg width="163" height="47" viewBox="0 0 163 47" fill="none" xmlns="http://www.w3.org/2000/svg">
<path d="M44.109 15.4487H53.6298V20.1461H39.0201V0.251709H44.109V15.4487Z" fill="#DEBF93"/>
<path d="M64.6464 0C66.1423 0 67.5124 0.237671 68.7567 0.713012C70.001 1.18835 71.0635 1.85942 71.9583 2.7402C72.853 3.607 73.5381 4.66953 74.0414 5.91381C74.5447 7.15808 74.7824 8.54217 74.7824 10.08C74.7824 11.6179 74.5447 12.988 74.0554 14.2463C73.5661 15.5045 72.881 16.595 71.9723 17.5038C71.0635 18.4125 70.001 19.1115 68.7567 19.6148C67.5124 20.1041 66.1284 20.3558 64.6185 20.3558C63.1085 20.3558 61.6546 20.1181 60.4103 19.6288C59.152 19.1395 58.0895 18.4544 57.1947 17.5597C56.3 16.6649 55.6149 15.6024 55.1396 14.3441C54.6642 13.0859 54.4266 11.7018 54.4266 10.1639C54.4266 8.62605 54.6782 7.22799 55.1675 5.98371C55.6569 4.73943 56.3559 3.66293 57.2646 2.78215C58.1594 1.90137 59.2359 1.21631 60.4942 0.726993C61.7524 0.237671 63.1365 0 64.6464 0ZM59.6134 10.136C59.6134 10.807 59.7113 11.4641 59.907 12.1212C60.1027 12.7643 60.4103 13.3515 60.8157 13.8548C61.2351 14.3721 61.7524 14.7775 62.4095 15.0991C63.0526 15.4067 63.8355 15.5604 64.7583 15.5604C65.6251 15.5604 66.3521 15.3927 66.9672 15.0711C67.5823 14.7496 68.0717 14.3162 68.4771 13.8129C68.8686 13.2956 69.1622 12.7224 69.3299 12.1072C69.5117 11.4781 69.5956 10.863 69.5956 10.2338C69.5956 9.66062 69.5117 9.04547 69.3439 8.38838C69.1761 7.74527 68.8965 7.15808 68.5051 6.62682C68.1136 6.10954 67.5963 5.66216 66.9812 5.32662C66.3521 4.9771 65.5971 4.80934 64.6884 4.80934C63.7796 4.80934 63.0247 4.96312 62.3676 5.28468C61.7245 5.60623 61.1932 6.01167 60.8017 6.52895C60.3963 7.03226 60.1027 7.60546 59.921 8.24857C59.7392 8.8777 59.6413 9.52081 59.6413 10.1639L59.6134 10.136Z" fill="#DEBF93"/>
<path d="M82.1642 10.136C82.1642 10.7651 82.2481 11.4082 82.4159 12.0653C82.5836 12.7084 82.8493 13.2956 83.2128 13.7989C83.5763 14.3162 84.0516 14.7356 84.6528 15.0571C85.2539 15.3787 85.9809 15.5465 86.8477 15.5465C87.9522 15.5465 88.847 15.3088 89.518 14.8195C90.1891 14.3301 90.6365 13.6451 90.8322 12.7364H95.7394C95.6416 13.9946 95.334 15.0991 94.8167 16.0498C94.2854 17.0004 93.6283 17.7973 92.8035 18.4405C91.9926 19.0836 91.0699 19.5589 90.0213 19.8805C88.9728 20.202 87.8963 20.3558 86.7778 20.3558C85.24 20.3558 83.8559 20.1181 82.6396 19.6568C81.4232 19.1954 80.3747 18.5104 79.5219 17.6296C78.6691 16.7488 78.012 15.6723 77.5646 14.414C77.1172 13.1558 76.8935 11.7297 76.8935 10.1639C76.8935 8.59809 77.1312 7.20003 77.5926 5.95575C78.0679 4.69749 78.725 3.63496 79.5918 2.75418C80.4586 1.8734 81.4932 1.20233 82.7095 0.713012C83.9258 0.237671 85.2679 0 86.7499 0C87.8963 0 88.9728 0.153787 89.9934 0.475341C91.014 0.796896 91.9087 1.27224 92.6916 1.88739C93.4746 2.51651 94.1037 3.29943 94.607 4.26409C95.0963 5.21478 95.4039 6.34721 95.5157 7.63343H90.7204C90.4967 6.73866 90.0633 6.03963 89.4481 5.53633C88.833 5.03303 87.9522 4.79536 86.8198 4.79536C85.953 4.79536 85.226 4.94914 84.6248 5.25672C84.0236 5.56429 83.5483 5.96973 83.1708 6.47303C82.7934 6.97634 82.5417 7.54954 82.3879 8.19265C82.2341 8.83576 82.1502 9.47887 82.1502 10.136H82.1642Z" fill="#DEBF93"/>
<path d="M101.122 20.1322H95.6695L103.652 0.251709H108.825L116.71 20.1322H111.23L110.251 17.3221H102.143L101.136 20.1322H101.122ZM108.644 12.7504L106.225 5.92785L103.722 12.7504H108.63H108.644Z" fill="#DEBF93"/>
<path d="M123.952 15.4487H133.473V20.1461H118.863V0.251709H123.952V15.4487Z" fill="#DEBF93"/>
<path d="M36.9507 13.6032C35.8462 14.7775 34.7697 15.6024 34.0427 15.6024C33.5254 15.6024 33.2318 15.2249 33.2318 14.6098C33.2318 12.5826 36.9646 7.70333 36.9227 4.30604C36.8808 2.08311 35.273 0.475342 33.0501 0.475342C30.8271 0.475342 28.2687 1.94331 26.577 4.82332L27.9052 0.950683H23.1238C20.9428 7.18605 18.8737 13.4354 16.7347 19.6707H21.6559C23.0679 14.47 26.8147 4.82332 30.5895 4.82332C31.4423 4.82332 31.7219 5.3406 31.7219 6.09556C31.7219 8.31848 28.2268 12.3309 28.2268 15.9799C28.2268 18.3845 29.6947 20.1461 32.5328 20.1461C34.0846 20.1461 35.5945 19.5449 36.9507 18.6502V13.6032Z" fill="#9CD4C2"/>
<path d="M15.3368 0.936645C13.9247 6.13744 10.1779 15.7841 6.40313 15.7841C5.55031 15.7841 5.2707 15.2668 5.2707 14.5118C5.2707 12.2889 8.76586 8.27648 8.76586 4.62753C8.76586 2.22286 7.29789 0.461304 4.4738 0.461304C2.90797 0.461304 1.3701 1.09043 0 1.99917V7.06016C1.11845 5.85783 2.22292 5.00501 2.94991 5.00501C3.4672 5.00501 3.76079 5.38249 3.76079 5.99763C3.76079 8.03881 0.0279613 12.9041 0.0699032 16.3014C0.111845 18.5243 1.71962 20.1321 3.94254 20.1321C6.16546 20.1321 8.72391 18.6641 10.4156 15.7841L9.08741 19.6567H13.8688C16.0498 13.4214 18.1189 7.17201 20.2579 0.936645H15.3368Z" fill="#9CD4C2"/>
<path d="M43.6892 39.649H53.4338V43.8292H39.0617V23.7251H43.6892V39.663V39.649Z" fill="#9CD4C2"/>
<path d="M60.3543 43.8292H55.7267V23.7251H60.3543V43.8292Z" fill="#9CD4C2"/>
<path d="M79.4658 46.9749C78.9905 46.3737 78.5291 45.7726 78.0677 45.1854C77.6064 44.5982 77.131 43.997 76.6277 43.3959C76.0825 43.6056 75.4813 43.7594 74.8522 43.8572C74.2231 43.9551 73.5939 44.011 72.9928 44.011C71.4269 44.011 70.0149 43.7594 68.7566 43.2561C67.5124 42.7528 66.4498 42.0537 65.5691 41.159C64.6883 40.2642 64.0312 39.1737 63.5698 37.9155C63.1085 36.6572 62.8708 35.2731 62.8708 33.7492C62.8708 32.2253 63.1085 30.8133 63.5978 29.5411C64.0871 28.2688 64.7582 27.1923 65.639 26.2836C66.5197 25.3888 67.5823 24.6898 68.8405 24.1865C70.0848 23.6832 71.4968 23.4315 73.0487 23.4315C74.6005 23.4315 75.9706 23.6692 77.2149 24.1585C78.4592 24.6478 79.5077 25.3329 80.3885 26.2137C81.2693 27.1084 81.9404 28.1849 82.4157 29.4432C82.8911 30.7014 83.1287 32.0995 83.1287 33.6374C83.1287 35.1752 82.8911 36.5454 82.4157 37.7477C81.9404 38.95 81.2693 40.0125 80.4025 40.9073C80.8359 41.4526 81.2693 42.0118 81.7027 42.571C82.1361 43.1302 82.5695 43.6895 83.0029 44.2347L79.4518 46.9609L79.4658 46.9749ZM67.6242 33.7213C67.6242 34.5042 67.7221 35.2452 67.9318 35.9582C68.1415 36.6712 68.463 37.3283 68.8964 37.8875C69.3298 38.4607 69.8891 38.9081 70.5881 39.2436C71.2871 39.5791 72.098 39.7609 73.0487 39.7609C73.9994 39.7609 74.7543 39.5931 75.4254 39.2436C76.0965 38.8941 76.6557 38.4467 77.0891 37.8875C77.5225 37.3283 77.844 36.6712 78.0677 35.9582C78.2914 35.2452 78.3893 34.5042 78.3893 33.7492C78.3893 32.9943 78.2774 32.2533 78.0817 31.5403C77.872 30.8273 77.5505 30.1842 77.1171 29.611C76.6837 29.0378 76.1244 28.5904 75.4394 28.2409C74.7543 27.9053 73.9574 27.7236 73.0207 27.7236C72.084 27.7236 71.2592 27.8913 70.5881 28.2548C69.917 28.6183 69.3578 29.0657 68.9104 29.611C68.463 30.1562 68.1415 30.8133 67.9318 31.5263C67.7221 32.2393 67.6242 32.9803 67.6242 33.7073V33.7213Z" fill="#9CD4C2"/>
<path d="M94.2574 44.0529C92.7195 44.0529 91.4053 43.8432 90.3009 43.4098C89.1964 42.9764 88.2877 42.3613 87.5746 41.5504C86.8616 40.7395 86.3443 39.7469 86.0088 38.5725C85.6733 37.3982 85.5055 36.056 85.5055 34.5461V23.7251H90.1331V34.8816C90.1331 35.5248 90.203 36.1399 90.3288 36.7411C90.4547 37.3422 90.6923 37.8595 91.0139 38.3209C91.3354 38.7683 91.7688 39.1318 92.3001 39.4114C92.8453 39.691 93.5024 39.8168 94.2993 39.8168C95.0962 39.8168 95.7813 39.677 96.3125 39.3974C96.8438 39.1178 97.2632 38.7403 97.5708 38.2929C97.8784 37.8316 98.1021 37.3143 98.2139 36.7131C98.3257 36.1119 98.3817 35.5108 98.3817 34.8816V23.7251H103.009V34.5461C103.009 36.042 102.841 37.3842 102.506 38.5585C102.17 39.7469 101.653 40.7395 100.94 41.5504C100.227 42.3613 99.3184 42.9904 98.2139 43.4098C97.1094 43.8292 95.7813 44.0529 94.2294 44.0529H94.2574Z" fill="#9CD4C2"/>
<path d="M115.564 23.4595C117.102 23.4595 118.486 23.6971 119.73 24.1865C120.974 24.6758 122.037 25.3608 122.904 26.2556C123.784 27.1504 124.455 28.2269 124.931 29.4851C125.406 30.7294 125.644 32.1275 125.644 33.6653C125.644 35.2032 125.406 36.5733 124.931 37.8455C124.455 39.1178 123.784 40.2083 122.904 41.145C122.023 42.0677 120.96 42.7947 119.702 43.298C118.458 43.8153 117.046 44.0529 115.494 44.039C113.928 44.039 112.516 43.7873 111.272 43.284C110.027 42.7807 108.979 42.0817 108.112 41.1729C107.245 40.2642 106.574 39.1737 106.113 37.9154C105.651 36.6572 105.414 35.2731 105.414 33.7492C105.414 32.2253 105.651 30.8133 106.141 29.555C106.63 28.2968 107.301 27.2063 108.182 26.2975C109.063 25.3888 110.125 24.6898 111.384 24.2004C112.642 23.7111 114.026 23.4595 115.564 23.4595ZM110.167 33.7213C110.167 34.5042 110.279 35.2451 110.489 35.9582C110.712 36.6712 111.034 37.3143 111.481 37.8735C111.929 38.4327 112.488 38.8801 113.173 39.2156C113.858 39.5512 114.669 39.7329 115.62 39.7609C116.528 39.7609 117.311 39.5931 117.982 39.2436C118.64 38.9081 119.199 38.4467 119.632 37.8875C120.066 37.3283 120.387 36.6712 120.597 35.9582C120.807 35.2451 120.904 34.5042 120.904 33.7772C120.904 33.0502 120.806 32.3092 120.611 31.5962C120.415 30.8832 120.093 30.2261 119.66 29.6669C119.227 29.1076 118.667 28.6323 117.996 28.2688C117.325 27.9053 116.514 27.7236 115.564 27.7236C114.613 27.7236 113.83 27.8913 113.145 28.2408C112.46 28.5764 111.901 29.0377 111.467 29.583C111.034 30.1422 110.712 30.7853 110.489 31.4983C110.265 32.2113 110.167 32.9523 110.167 33.7073V33.7213Z" fill="#9CD4C2"/>
<path d="M136.493 23.7252C137.415 23.7252 138.352 23.809 139.303 23.9768C140.254 24.1446 141.106 24.4661 141.861 24.9415C142.616 25.4168 143.231 26.0739 143.707 26.9127C144.182 27.7516 144.42 28.8421 144.42 30.1702C144.378 31.6522 144.028 32.9244 143.343 34.0009C142.658 35.0774 141.652 35.8324 140.309 36.2378L144.853 43.8153H139.624L135.682 36.825H132.816V43.8153H128.188V23.7112H136.507L136.493 23.7252ZM136.465 32.8405C137.471 32.8405 138.268 32.6588 138.883 32.2673C139.485 31.8899 139.806 31.2467 139.848 30.338C139.862 29.8627 139.792 29.4712 139.624 29.1636C139.457 28.8561 139.219 28.6044 138.925 28.4227C138.632 28.2409 138.282 28.1151 137.877 28.0592C137.471 27.9893 137.024 27.9613 136.563 27.9613H132.816V32.8405H136.479H136.465Z" fill="#9CD4C2"/>
<path d="M158.037 29.8486C157.925 29.1356 157.575 28.5764 156.974 28.1989C156.373 27.8214 155.59 27.6257 154.625 27.6257C154.29 27.6257 153.954 27.6537 153.619 27.7236C153.283 27.7935 152.99 27.8913 152.724 28.0311C152.458 28.1709 152.249 28.3527 152.081 28.5904C151.913 28.8141 151.843 29.0797 151.843 29.3873C151.843 29.7088 151.913 29.9744 152.053 30.1842C152.193 30.3939 152.403 30.5756 152.682 30.7294C152.962 30.8832 153.283 31.009 153.675 31.1209C154.066 31.2327 154.5 31.3585 154.989 31.4844C155.968 31.75 156.932 31.9877 157.883 32.1974C158.834 32.4071 159.672 32.7147 160.427 33.1061C161.168 33.4976 161.784 34.0568 162.245 34.7558C162.706 35.4549 162.958 36.4335 163 37.6778C163 38.7962 162.79 39.7609 162.371 40.5578C161.951 41.3687 161.392 42.0258 160.679 42.5291C159.966 43.0463 159.141 43.4238 158.191 43.6615C157.24 43.9131 156.247 44.025 155.213 44.025C154.178 44.025 153.157 43.9131 152.179 43.6755C151.2 43.4378 150.305 43.0463 149.509 42.5151C148.712 41.9698 148.055 41.2848 147.551 40.432C147.034 39.5791 146.74 38.5446 146.643 37.3143H151.326C151.438 37.7896 151.634 38.1811 151.899 38.4887C152.165 38.7962 152.486 39.0479 152.85 39.2436C153.213 39.4393 153.633 39.5652 154.094 39.649C154.556 39.7329 155.031 39.7749 155.534 39.7749C155.842 39.7749 156.163 39.7469 156.499 39.691C156.834 39.6351 157.142 39.5372 157.408 39.3974C157.673 39.2576 157.897 39.0619 158.079 38.8242C158.26 38.5865 158.344 38.2929 158.344 37.9574C158.344 37.4681 158.163 37.0906 157.813 36.8389C157.464 36.5873 157.016 36.3916 156.499 36.2517C155.213 35.9721 154.01 35.6785 152.892 35.3989C151.773 35.1193 150.795 34.7418 149.956 34.2945C149.117 33.8471 148.446 33.2459 147.971 32.5049C147.495 31.764 147.244 30.7853 147.244 29.583C147.244 28.3807 147.495 27.374 147.985 26.5772C148.474 25.7803 149.103 25.1511 149.872 24.6898C150.641 24.2284 151.48 23.9069 152.389 23.7251C153.297 23.5434 154.234 23.4595 155.199 23.4595C156.163 23.4595 157.128 23.5993 157.967 23.8649C158.806 24.1305 159.547 24.536 160.19 25.0672C160.833 25.5985 161.364 26.2556 161.77 27.0385C162.175 27.8214 162.441 28.7581 162.552 29.8346H158.037V29.8486Z" fill="#9CD4C2"/>
</svg>
