<svg width="300" height="300" viewBox="0 0 1200 347" fill="none" xmlns="http://www.w3.org/2000/svg">
<path d="M324.728 114.707H394.82V149.29H287.263V2.82764H324.728V114.707Z" fill="#DEBF93" fill-opacity="0.1"/>
<path d="M475.927 0.974854C486.94 0.974854 497.027 2.72458 506.187 6.22402C515.347 9.72347 523.169 14.6639 529.757 21.1481C536.344 27.5295 541.387 35.3518 545.092 44.5121C548.798 53.6724 550.548 63.862 550.548 75.1837C550.548 86.5055 548.798 96.5921 545.195 105.855C541.593 115.119 536.55 123.147 529.86 129.837C523.169 136.527 515.347 141.673 506.187 145.379C497.027 148.981 486.837 150.834 475.721 150.834C464.605 150.834 453.901 149.084 444.741 145.481C435.477 141.879 427.655 136.836 421.068 130.249C414.481 123.661 409.437 115.839 405.938 106.576C402.439 97.3126 400.689 87.123 400.689 75.8013C400.689 64.4795 402.541 54.187 406.144 45.0267C409.746 35.8664 414.892 27.9412 421.583 21.4569C428.17 14.9726 436.095 9.92932 445.358 6.32695C454.621 2.72458 464.811 0.974854 475.927 0.974854ZM438.874 75.5954C438.874 80.5358 439.594 85.3733 441.035 90.2108C442.476 94.9453 444.741 99.2682 447.725 102.973C450.813 106.782 454.621 109.766 459.459 112.134C464.193 114.398 469.957 115.53 476.75 115.53C483.132 115.53 488.484 114.295 493.012 111.928C497.541 109.561 501.144 106.37 504.128 102.665C507.01 98.8565 509.172 94.6365 510.407 90.1078C511.745 85.4762 512.362 80.9475 512.362 76.3159C512.362 72.096 511.745 67.5673 510.51 62.7298C509.275 57.9953 507.216 53.6724 504.334 49.7613C501.452 45.953 497.644 42.6594 493.115 40.1892C488.484 37.6161 482.926 36.381 476.236 36.381C469.546 36.381 463.988 37.5132 459.15 39.8805C454.416 42.2477 450.504 45.2326 447.623 49.0408C444.638 52.7461 442.476 56.966 441.138 61.7006C439.8 66.3322 439.08 71.0667 439.08 75.8013L438.874 75.5954Z" fill="#DEBF93" fill-opacity="0.1"/>
<path d="M604.889 75.5954C604.889 80.227 605.506 84.9616 606.741 89.7991C607.976 94.5336 609.932 98.8565 612.608 102.562C615.284 106.37 618.784 109.458 623.209 111.825C627.635 114.192 632.987 115.427 639.369 115.427C647.5 115.427 654.087 113.678 659.027 110.075C663.968 106.473 667.261 101.43 668.702 94.7394H704.829C704.108 104.003 701.844 112.134 698.036 119.133C694.125 126.132 689.287 131.998 683.215 136.733C677.245 141.467 670.452 144.967 662.732 147.334C655.013 149.701 647.088 150.834 638.854 150.834C627.532 150.834 617.343 149.084 608.388 145.687C599.434 142.291 591.714 137.247 585.436 130.763C579.157 124.279 574.32 116.354 571.026 107.09C567.733 97.8272 566.086 87.3289 566.086 75.8013C566.086 64.2737 567.836 53.9812 571.232 44.8209C574.732 35.5576 579.569 27.7353 585.951 21.2511C592.332 14.7668 599.948 9.8264 608.903 6.22402C617.857 2.72458 627.738 0.974854 638.648 0.974854C647.088 0.974854 655.013 2.10703 662.527 4.4743C670.04 6.84157 676.627 10.341 682.391 14.8697C688.155 19.5013 692.787 25.2651 696.492 32.367C700.094 39.3658 702.359 47.7028 703.182 57.1719H667.879C666.232 50.5847 663.041 45.4384 658.513 41.7331C653.984 38.0278 647.5 36.2781 639.163 36.2781C632.781 36.2781 627.429 37.4103 623.003 39.6746C618.578 41.939 615.078 44.9238 612.299 48.6291C609.52 52.3344 607.668 56.5543 606.535 61.2889C605.403 66.0234 604.786 70.7579 604.786 75.5954H604.889Z" fill="#DEBF93" fill-opacity="0.1"/>
<path d="M744.458 149.187H704.318L763.088 2.82764H801.17L859.22 149.187H818.873L811.668 128.499H751.972L744.561 149.187H744.458ZM799.832 94.8425L782.026 44.6152L763.602 94.8425H799.729H799.832Z" fill="#DEBF93" fill-opacity="0.1"/>
<path d="M912.533 114.707H982.625V149.29H875.069V2.82764H912.533V114.707Z" fill="#DEBF93" fill-opacity="0.1"/>
<path d="M272.03 101.12C263.899 109.766 255.974 115.839 250.622 115.839C246.813 115.839 244.652 113.06 244.652 108.531C244.652 93.6068 272.133 57.6861 271.824 32.6753C271.515 16.3102 259.679 4.47388 243.314 4.47388C226.949 4.47388 208.114 15.281 195.66 36.4835L205.438 7.97332H170.237C154.181 53.8778 138.948 99.8853 123.201 145.79H159.43C169.826 107.502 197.409 36.4835 225.199 36.4835C231.478 36.4835 233.536 40.2917 233.536 45.8497C233.536 62.2148 207.805 91.7542 207.805 118.618C207.805 136.321 218.612 149.289 239.506 149.289C250.93 149.289 262.046 144.863 272.03 138.276V101.12Z" fill="#9CD4C2" fill-opacity="0.1"/>
<path d="M112.909 7.87005C102.514 46.1581 74.9298 117.176 47.14 117.176C40.8616 117.176 38.8031 113.368 38.8031 107.81C38.8031 91.4451 64.5343 61.9056 64.5343 35.0422C64.5343 17.3391 53.7272 4.37061 32.9364 4.37061C21.4088 4.37061 10.0871 9.00223 0.000427246 15.6923V52.9512C8.23442 44.0996 16.3655 37.8212 21.7176 37.8212C25.5258 37.8212 27.6872 40.6002 27.6872 45.1289C27.6872 60.1559 0.206277 95.9738 0.515052 120.985C0.823827 137.35 12.6602 149.186 29.0253 149.186C45.3903 149.186 64.2256 138.379 76.6795 117.176L66.9016 145.687H102.102C118.158 99.782 133.391 53.7746 149.139 7.87005H112.909Z" fill="#9CD4C2" fill-opacity="0.1"/>
<path d="M321.641 292.871H393.379V323.645H287.573V175.639H321.641V292.974V292.871Z" fill="#9CD4C2" fill-opacity="0.1"/>
<path d="M444.328 323.645H410.26V175.639H444.328V323.645Z" fill="#9CD4C2" fill-opacity="0.1"/>
<path d="M585.026 346.802C581.527 342.377 578.13 337.951 574.734 333.628C571.337 329.305 567.838 324.879 564.133 320.454C560.118 321.998 555.693 323.13 551.061 323.85C546.429 324.571 541.798 324.982 537.372 324.982C525.844 324.982 515.449 323.13 506.186 319.424C497.025 315.719 489.203 310.573 482.719 303.986C476.235 297.399 471.397 289.37 468.001 280.107C464.604 270.844 462.854 260.654 462.854 249.436C462.854 238.217 464.604 227.821 468.207 218.455C471.809 209.089 476.749 201.164 483.234 194.474C489.718 187.886 497.54 182.74 506.803 179.035C515.964 175.33 526.359 173.477 537.784 173.477C549.208 173.477 559.295 175.227 568.455 178.829C577.616 182.431 585.335 187.475 591.819 193.959C598.304 200.546 603.244 208.471 606.743 217.735C610.243 226.998 611.993 237.29 611.993 248.612C611.993 259.934 610.243 270.021 606.743 278.872C603.244 287.724 598.304 295.546 591.922 302.133C595.113 306.147 598.304 310.264 601.494 314.381C604.685 318.498 607.876 322.615 611.066 326.629L584.923 346.7L585.026 346.802ZM497.849 249.23C497.849 254.993 498.569 260.448 500.113 265.698C501.657 270.947 504.024 275.784 507.215 279.901C510.406 284.121 514.523 287.415 519.669 289.885C524.815 292.355 530.785 293.693 537.784 293.693C544.783 293.693 550.341 292.458 555.281 289.885C560.221 287.312 564.338 284.018 567.529 279.901C570.72 275.784 573.087 270.947 574.734 265.698C576.381 260.448 577.101 254.993 577.101 249.436C577.101 243.878 576.278 238.423 574.837 233.173C573.293 227.924 570.926 223.19 567.735 218.97C564.544 214.75 560.427 211.456 555.384 208.883C550.341 206.413 544.474 205.075 537.578 205.075C530.682 205.075 524.609 206.31 519.669 208.986C514.729 211.662 510.612 214.956 507.318 218.97C504.024 222.984 501.657 227.821 500.113 233.07C498.569 238.32 497.849 243.775 497.849 249.127V249.23Z" fill="#9CD4C2" fill-opacity="0.1"/>
<path d="M693.918 325.292C682.597 325.292 672.922 323.748 664.791 320.558C656.66 317.367 649.969 312.838 644.72 306.869C639.471 300.899 635.663 293.591 633.193 284.946C630.723 276.3 629.487 266.419 629.487 255.303V175.639H663.556V257.773C663.556 262.508 664.07 267.037 664.997 271.462C665.923 275.888 667.673 279.696 670.04 283.093C672.407 286.386 675.598 289.063 679.509 291.121C683.523 293.18 688.36 294.106 694.227 294.106C700.094 294.106 705.137 293.077 709.048 291.018C712.96 288.96 716.047 286.181 718.312 282.887C720.576 279.491 722.223 275.682 723.046 271.257C723.87 266.831 724.281 262.405 724.281 257.773V175.639H758.349V255.303C758.349 266.316 757.114 276.197 754.644 284.843C752.174 293.591 748.366 300.899 743.117 306.869C737.867 312.838 731.177 317.47 723.046 320.558C714.915 323.645 705.137 325.292 693.713 325.292H693.918Z" fill="#9CD4C2" fill-opacity="0.1"/>
<path d="M850.775 173.683C862.097 173.683 872.286 175.433 881.447 179.035C890.607 182.638 898.429 187.681 904.811 194.268C911.295 200.855 916.235 208.781 919.735 218.044C923.234 227.204 924.984 237.497 924.984 248.818C924.984 260.14 923.234 270.227 919.735 279.593C916.235 288.959 911.295 296.987 904.811 303.883C898.327 310.676 890.504 316.028 881.241 319.734C872.081 323.542 861.685 325.292 850.261 325.189C838.733 325.189 828.338 323.336 819.177 319.631C810.017 315.925 802.298 310.779 795.916 304.089C789.535 297.399 784.594 289.371 781.198 280.108C777.801 270.844 776.052 260.655 776.052 249.436C776.052 238.217 777.801 227.822 781.404 218.558C785.006 209.295 789.947 201.267 796.431 194.577C802.915 187.887 810.737 182.741 820.001 179.138C829.264 175.536 839.453 173.683 850.775 173.683ZM811.046 249.23C811.046 254.994 811.87 260.449 813.413 265.698C815.06 270.947 817.427 275.682 820.721 279.799C824.015 283.916 828.132 287.209 833.175 289.68C838.218 292.15 844.188 293.488 851.187 293.694C857.877 293.694 863.641 292.459 868.581 289.885C873.419 287.415 877.536 284.019 880.726 279.902C883.917 275.785 886.284 270.947 887.828 265.698C889.372 260.449 890.093 254.994 890.093 249.642C890.093 244.29 889.372 238.835 887.931 233.586C886.49 228.336 884.123 223.499 880.932 219.382C877.741 215.265 873.625 211.765 868.684 209.089C863.744 206.413 857.774 205.075 850.775 205.075C843.776 205.075 838.012 206.31 832.969 208.884C827.926 211.354 823.809 214.75 820.618 218.764C817.428 222.881 815.06 227.616 813.413 232.865C811.767 238.114 811.046 243.569 811.046 249.127V249.23Z" fill="#9CD4C2" fill-opacity="0.1"/>
<path d="M1004.86 175.639C1011.65 175.639 1018.55 176.256 1025.55 177.492C1032.54 178.727 1038.82 181.094 1044.38 184.593C1049.94 188.093 1054.47 192.93 1057.97 199.106C1061.47 205.281 1063.22 213.309 1063.22 223.087C1062.91 233.997 1060.33 243.364 1055.29 251.289C1050.25 259.214 1042.84 264.772 1032.96 267.757L1066.41 323.542H1027.91L998.888 272.08H977.788V323.542H943.72V175.536H1004.96L1004.86 175.639ZM1004.65 242.746C1012.06 242.746 1017.93 241.408 1022.46 238.526C1026.88 235.747 1029.25 231.013 1029.56 224.322C1029.66 220.823 1029.15 217.941 1027.91 215.677C1026.68 213.412 1024.93 211.56 1022.77 210.222C1020.6 208.884 1018.03 207.957 1015.05 207.546C1012.06 207.031 1008.77 206.825 1005.37 206.825H977.788V242.746H1004.75H1004.65Z" fill="#9CD4C2" fill-opacity="0.1"/>
<path d="M1163.46 220.72C1162.64 215.471 1160.06 211.354 1155.64 208.575C1151.21 205.796 1145.45 204.355 1138.35 204.355C1135.88 204.355 1133.41 204.561 1130.94 205.075C1128.47 205.59 1126.31 206.31 1124.35 207.34C1122.39 208.369 1120.85 209.707 1119.62 211.457C1118.38 213.103 1117.87 215.059 1117.87 217.323C1117.87 219.691 1118.38 221.646 1119.41 223.19C1120.44 224.734 1121.98 226.072 1124.04 227.204C1126.1 228.336 1128.47 229.263 1131.35 230.086C1134.23 230.909 1137.42 231.836 1141.02 232.762C1148.23 234.718 1155.33 236.467 1162.33 238.011C1169.33 239.555 1175.5 241.82 1181.06 244.701C1186.52 247.583 1191.05 251.7 1194.44 256.847C1197.84 261.993 1199.69 269.198 1200 278.358C1200 286.592 1198.46 293.694 1195.37 299.56C1192.28 305.53 1188.16 310.368 1182.91 314.073C1177.66 317.881 1171.59 320.66 1164.59 322.41C1157.59 324.262 1150.29 325.086 1142.67 325.086C1135.05 325.086 1127.54 324.262 1120.34 322.513C1113.13 320.763 1106.54 317.881 1100.68 313.97C1094.81 309.956 1089.97 304.912 1086.27 298.634C1082.46 292.356 1080.3 284.739 1079.58 275.682H1114.06C1114.88 279.181 1116.32 282.063 1118.28 284.328C1120.23 286.592 1122.6 288.445 1125.28 289.885C1127.95 291.326 1131.04 292.253 1134.44 292.87C1137.83 293.488 1141.33 293.797 1145.04 293.797C1147.3 293.797 1149.67 293.591 1152.14 293.179C1154.61 292.767 1156.87 292.047 1158.83 291.018C1160.79 289.988 1162.43 288.547 1163.77 286.798C1165.11 285.048 1165.73 282.887 1165.73 280.416C1165.73 276.814 1164.39 274.035 1161.81 272.182C1159.24 270.33 1155.95 268.889 1152.14 267.86C1142.67 265.801 1133.82 263.64 1125.58 261.581C1117.35 259.523 1110.15 256.744 1103.97 253.45C1097.8 250.156 1092.85 245.731 1089.36 240.276C1085.86 234.821 1084 227.616 1084 218.764C1084 209.913 1085.86 202.502 1089.46 196.635C1093.06 190.769 1097.69 186.137 1103.35 182.741C1109.01 179.344 1115.19 176.977 1121.88 175.639C1128.57 174.301 1135.47 173.683 1142.57 173.683C1149.67 173.683 1156.77 174.712 1162.95 176.668C1169.12 178.624 1174.58 181.608 1179.31 185.52C1184.05 189.431 1187.96 194.268 1190.94 200.032C1193.93 205.796 1195.88 212.692 1196.71 220.617H1163.46V220.72Z" fill="#9CD4C2" fill-opacity="0.1"/>
</svg>
